<?xml version="1.0" encoding="UTF-8"?>
<!DOCTYPE svg PUBLIC "-//W3C//DTD SVG 1.1//EN" "http://www.w3.org/Graphics/SVG/1.1/DTD/svg11.dtd">
<!-- Creator: CorelDRAW 2018 (64-Bit) -->
<svg xmlns="http://www.w3.org/2000/svg" xml:space="preserve" width="67.733mm" height="67.733mm" version="1.1" style="shape-rendering:geometricPrecision; text-rendering:geometricPrecision; image-rendering:optimizeQuality; fill-rule:evenodd; clip-rule:evenodd"
viewBox="0 0 4569.45 4569.45"
 xmlns:xlink="http://www.w3.org/1999/xlink">
 <defs>
  <style type="text/css">
   <![CDATA[
    .fil7 {fill:#02B2D6}
    .fil9 {fill:#231F20}
    .fil6 {fill:#57BADF}
    .fil4 {fill:#6DB64C}
    .fil5 {fill:#AFDBE7}
    .fil3 {fill:#BFD141}
    .fil2 {fill:#E53D42}
    .fil1 {fill:#E86F32}
    .fil0 {fill:#F5BB60}
    .fil10 {fill:white}
    .fil8 {fill:url(#id0)}
   ]]>
  </style>
  <radialGradient id="id0" gradientUnits="userSpaceOnUse" gradientTransform="matrix(1.0022 -0 -0 1.0022 -5 -4)" cx="2311.96" cy="1861.45" r="7803.58" fx="2311.96" fy="1861.45">
   <stop offset="0" style="stop-opacity:1; stop-color:#797979"/>
   <stop offset="1" style="stop-opacity:1; stop-color:#4C4C4C"/>
  </radialGradient>
 </defs>
 <g id="Слой_x0020_1">
  <metadata id="CorelCorpID_0Corel-Layer"/>
  <g id="_2381431022080">
   <circle class="fil0" cx="2287.2" cy="2287.2" r="2282.25"/>
   <circle class="fil1" cx="2054.53" cy="2054.53" r="2054.53"/>
   <circle class="fil2" cx="2326.81" cy="1782.25" r="1782.23"/>
   <circle class="fil3" cx="2470.38" cy="1925.81" r="1638.66"/>
   <circle class="fil4" cx="2351.57" cy="2044.62" r="1519.85"/>
   <circle class="fil5" cx="2108.99" cy="1807" r="1277.27"/>
   <circle class="fil6" cx="2316.9" cy="1594.13" r="1069.34"/>
   <circle class="fil7" cx="2450.58" cy="1727.79" r="940.62"/>
   <circle class="fil8" cx="2311.96" cy="1861.45" r="802"/>
   <circle class="fil9" cx="2311.96" cy="1861.45" r="802"/>
   <path class="fil10" d="M2522.58 1756.36c79.53,35.69 189.18,-36.11 244.93,-160.35 55.74,-124.25 36.47,-253.9 -43.03,-289.57 -79.54,-35.69 -189.18,36.11 -244.92,160.35 -55.75,124.25 -36.49,253.9 43.03,289.57z"/>
  </g>
 </g>
</svg>
