<?xml version="1.0" encoding="UTF-8"?>
<!DOCTYPE svg PUBLIC "-//W3C//DTD SVG 1.1//EN" "http://www.w3.org/Graphics/SVG/1.1/DTD/svg11.dtd">
<!-- Creator: CorelDRAW 2018 (64-Bit) -->
<svg xmlns="http://www.w3.org/2000/svg" xml:space="preserve" width="67.7334mm" height="67.7334mm" version="1.1" style="shape-rendering:geometricPrecision; text-rendering:geometricPrecision; image-rendering:optimizeQuality; fill-rule:evenodd; clip-rule:evenodd"
viewBox="0 0 2025.3 2025.3"
 xmlns:xlink="http://www.w3.org/1999/xlink">
 <defs>
  <style type="text/css">
   <![CDATA[
    .fil0 {fill:#2396ED}
    .fil1 {fill:white}
   ]]>
  </style>
 </defs>
 <g id="Слой_x0020_1">
  <metadata id="CorelCorpID_0Corel-Layer"/>
  <g id="_2381357425360">
   <path class="fil0" d="M474.68 0l1075.94 0c262.11,0 474.68,212.57 474.68,474.68l0 1075.94c0,262.11 -212.57,474.68 -474.68,474.68l-1075.94 0c-262.11,-0 -474.68,-212.57 -474.68,-474.68l-0 -1075.94c0,-262.11 212.57,-474.68 474.68,-474.68z"/>
   <path class="fil1" d="M1116.98 966.15l163.9 0 0 -148.29 -163.9 0 0 148.29zm-195.11 0l163.89 0 0 -148.29 -163.89 0 0 148.29zm-191.21 0l163.9 0 0 -148.29 -163.9 0 0 148.29zm-191.21 0l159.99 0 0 -148.29 -159.99 0 0 148.29zm-195.11 0l163.89 0 0 -148.29 -163.89 0 0 148.29zm195.11 -179.5l159.99 0 0 -148.29 -159.99 0 0 148.29zm191.21 0l163.9 0 0 -148.29 -163.9 0 0 148.29zm191.21 0l163.89 0 0 -148.29 -163.89 0 0 148.29zm0 -179.5l163.89 0 0 -148.29 -163.89 0 0 148.29zm881.91 292.67c0,0 -70.24,-66.34 -214.62,-42.93 -15.61,-113.17 -136.58,-179.51 -136.58,-179.51 0,0 -113.16,136.58 -31.22,288.77 -23.41,11.71 -62.44,27.32 -120.97,27.32l-1073.12 0c-19.51,74.15 -19.51,565.83 519,565.83 386.32,0 675.09,-179.5 811.67,-507.3 202.92,15.62 245.84,-152.18 245.84,-152.18z"/>
  </g>
 </g>
</svg>
