<?xml version="1.0" encoding="UTF-8"?>
<!DOCTYPE svg PUBLIC "-//W3C//DTD SVG 1.1//EN" "http://www.w3.org/Graphics/SVG/1.1/DTD/svg11.dtd">
<!-- Creator: CorelDRAW 2018 (64-Bit) -->
<svg xmlns="http://www.w3.org/2000/svg" xml:space="preserve" width="67.7334mm" height="67.7334mm" version="1.1" style="shape-rendering:geometricPrecision; text-rendering:geometricPrecision; image-rendering:optimizeQuality; fill-rule:evenodd; clip-rule:evenodd"
viewBox="0 0 6719 6719"
 xmlns:xlink="http://www.w3.org/1999/xlink">
 <defs>
  <style type="text/css">
   <![CDATA[
    .fil2 {fill:none}
    .fil0 {fill:#F03C2E}
    .fil1 {fill:white}
   ]]>
  </style>
    <clipPath id="id0">
     <path d="M734.9 5984.1l5249.21 0 0 -5249.21 -5249.21 0 0 5249.21z"/>
    </clipPath>
 </defs>
 <g id="Слой_x0020_1">
  <metadata id="CorelCorpID_0Corel-Layer"/>
  <g id="_2381357433104">
   <path class="fil0" d="M1574.76 0l3569.47 0c869.57,0 1574.76,705.2 1574.76,1574.76l0 3569.47c0,869.56 -705.2,1574.75 -1574.76,1574.75l-3569.47 0.01c-869.56,-0.01 -1574.75,-705.21 -1574.75,-1574.77l-0.01 -3569.46c0.01,-869.57 705.21,-1574.76 1574.77,-1574.76z"/>
   <g>
   </g>
   <g style="clip-path:url(#id0)">
    <g id="_2381357432112">
     <g>
      <path class="fil1" d="M5885.02 3125.75l-2291.78 -2291.78c-31.37,-31.41 -68.63,-56.3 -109.63,-73.3 -41.02,-16.99 -84.98,-25.74 -129.36,-25.74 -44.38,0 -88.35,8.75 -129.36,25.74 -41,16.99 -78.27,41.89 -109.63,73.3l-475.71 475.7 603.66 603.67c140.42,-49.21 301.17,-15.59 413.04,96.28 53.25,53.36 90.44,120.6 107.29,194.08 16.85,73.48 12.71,150.21 -11.99,221.43l581.84 581.85c140.76,-48.56 303.15,-17.25 415.5,95.46 37.38,37.37 67.01,81.73 87.22,130.54 20.21,48.82 30.6,101.12 30.6,153.96 -0.03,52.83 -10.43,105.14 -30.66,153.95 -20.24,48.8 -49.87,93.15 -87.23,130.49 -37.35,37.38 -81.71,66.98 -130.52,87.19 -48.82,20.23 -101.13,30.62 -153.96,30.6 -52.83,0 -105.16,-10.43 -153.95,-30.63 -48.82,-20.24 -93.18,-49.87 -130.52,-87.24 -118.1,-118.1 -147.29,-291.99 -87.58,-437.49l-542.64 -542.64 0 1427.97c39.4,19.47 75.38,45.19 106.62,76.11 37.35,37.35 66.98,81.68 87.21,130.49 20.21,48.8 30.6,101.1 30.6,153.94 0,52.83 -10.4,105.14 -30.6,153.94 -20.24,48.82 -49.87,93.17 -87.21,130.51 -37.35,37.35 -81.71,66.99 -130.49,87.19 -48.83,20.21 -101.13,30.63 -153.94,30.63 -52.83,0 -105.14,-10.43 -153.94,-30.63 -48.82,-20.21 -93.18,-49.85 -130.52,-87.19 -37.4,-37.35 -67.06,-81.67 -87.29,-130.46 -20.26,-48.82 -30.68,-101.15 -30.68,-153.98 0,-52.83 10.43,-105.14 30.68,-153.96 20.24,-48.82 49.9,-93.15 87.29,-130.46 38.88,-38.72 82.03,-68.08 131.73,-87.77l0 -1441.24c-47.9,-19.69 -92.86,-48.72 -131.73,-87.75 -56.47,-56.41 -94.87,-128.37 -110.31,-206.7 -15.41,-78.33 -7.16,-159.47 23.7,-233.08l-595.45 -595.14 -1571.48 1569.84c-31.42,31.4 -56.34,68.66 -73.36,109.68 -17,41.03 -25.75,84.98 -25.75,129.39 0,44.41 8.75,88.4 25.75,129.42 17.01,41.02 41.94,78.29 73.36,109.68l2291.94 2291.6c31.37,31.39 68.63,56.29 109.63,73.31 41.02,16.97 84.98,25.71 129.36,25.71 44.38,0 88.35,-8.74 129.36,-25.71 41,-17.01 78.27,-41.92 109.63,-73.31l2281.28 -2277.66c31.42,-31.4 56.35,-68.66 73.36,-109.68 17.01,-41.03 25.75,-84.98 25.75,-129.39 0,-44.41 -8.74,-88.4 -25.75,-129.42 -17,-41.02 -41.94,-78.29 -73.36,-109.68l0 -1.63zm0 0l0 0 0 0z"/>
     </g>
    </g>
   </g>
   <polygon class="fil2" points="734.9,5984.1 5984.1,5984.1 5984.1,734.9 734.9,734.9 "/>
  </g>
 </g>
</svg>
