<?xml version="1.0" encoding="UTF-8"?>
<!DOCTYPE svg PUBLIC "-//W3C//DTD SVG 1.1//EN" "http://www.w3.org/Graphics/SVG/1.1/DTD/svg11.dtd">
<!-- Creator: CorelDRAW 2018 (64-Bit) -->
<svg xmlns="http://www.w3.org/2000/svg" xml:space="preserve" width="67.7334mm" height="67.7334mm" version="1.1" style="shape-rendering:geometricPrecision; text-rendering:geometricPrecision; image-rendering:optimizeQuality; fill-rule:evenodd; clip-rule:evenodd"
viewBox="0 0 2025.3 2025.3"
 xmlns:xlink="http://www.w3.org/1999/xlink">
 <defs>
  <style type="text/css">
   <![CDATA[
    .fil0 {fill:whitesmoke}
    .fil3 {fill:#212121}
    .fil2 {fill:#263238}
    .fil6 {fill:#455A64}
    .fil5 {fill:#634703}
    .fil1 {fill:#ECEFF1}
    .fil4 {fill:#FFC107}
   ]]>
  </style>
 </defs>
 <g id="Слой_x0020_1">
  <metadata id="CorelCorpID_0Corel-Layer"/>
  <path class="fil0" d="M474.68 0l1075.94 0c262.11,0 474.68,212.57 474.68,474.68l0 1075.94c0,262.11 -212.57,474.68 -474.68,474.68l-1075.94 0c-262.11,-0 -474.68,-212.57 -474.68,-474.68l-0 -1075.94c0,-262.11 212.57,-474.68 474.68,-474.68z"/>
  <g id="_2381448660768">
   <polygon class="fil1" points="667.57,1605.79 868.48,1717.34 1172.29,1717.34 1456.49,1503.95 1583.89,1169.32 1289.88,815.3 1206.59,616.46 799.88,631.01 804.77,742.56 726.37,888.04 603.87,1125.68 579.37,1324.51 "/>
   <path class="fil2" d="M1495.69 907.44c-78.4,-111.55 -142.1,-179.44 -176.4,-320.08 -34.3,-140.64 9.8,-101.84 -19.6,-223.08 -14.7,-63.05 -39.2,-106.69 -63.7,-140.64 -29.4,-33.95 -63.7,-53.35 -83.3,-58.2 -44.1,-24.25 -147,-63.04 -274.4,4.85 -132.31,67.9 -117.61,213.39 -93.1,509.21 0,19.4 -4.9,43.65 -14.7,63.05 -19.6,43.65 -53.9,82.44 -83.3,116.4 -34.3,48.49 -68.6,96.99 -93.1,150.33 -58.8,111.54 -112.7,252.18 -98,305.53 24.5,-4.85 333.21,460.72 333.21,470.42 19.6,-4.85 102.9,-4.85 176.4,-4.85 102.9,-4.85 161.7,-9.7 245.01,9.7 0,-14.55 -4.9,-29.1 -4.9,-43.65 0,-29.1 4.9,-53.35 9.8,-87.29 4.9,-24.25 9.8,-48.49 14.7,-77.59 -49,43.64 -137.21,92.14 -220.51,106.69 -73.5,14.54 -196,-9.7 -254.81,-82.45 4.9,0 14.7,0 19.61,-4.85 14.7,-4.85 29.4,-9.7 34.3,-19.39 14.7,-24.25 4.9,-48.5 -4.9,-63.05 -9.8,-14.56 -83.3,-67.91 -117.6,-96.99 -34.3,-29.1 -53.9,-43.65 -73.5,-63.05 0,0 -29.4,-29.1 -39.2,-38.8 -9.8,-9.7 -14.7,-19.4 -19.6,-24.25 -9.8,-24.24 -14.7,-53.34 -9.8,-92.13 4.9,-53.35 24.5,-97 49,-145.49 9.8,-19.4 34.3,-58.2 34.3,-58.2 0,0 -83.3,203.69 -39.2,266.74 0,0 4.9,-63.04 24.5,-126.09 14.7,-43.65 39.2,-106.7 68.6,-140.65 29.4,-33.95 102.9,-160.04 107.81,-237.63 0,-33.95 4.9,-67.9 4.9,-92.14 -19.6,-19.4 323.41,-67.9 343.01,-14.55 4.89,19.4 73.5,193.99 112.7,286.13 19.6,43.65 44.1,82.45 58.8,130.94 14.71,53.35 24.5,126.09 24.5,198.84 0,14.55 0,38.8 -4.9,63.05 9.8,0 200.91,-203.69 -24.49,-373.43 0,0 137.19,63.05 142.1,189.14 4.9,101.84 -39.21,184.29 -49,198.83 4.89,0 102.9,43.66 107.8,43.66 19.61,0 58.8,-14.56 58.8,-14.56 4.9,-14.54 19.6,-53.35 19.6,-67.89 34.31,-111.55 -49,-290.98 -127.4,-402.52l0 0z"/>
   <path class="fil1" d="M873.37 587.36c35.18,0 63.7,-43.43 63.7,-96.99 0,-53.57 -28.51,-96.99 -63.7,-96.99 -35.18,0 -63.7,43.43 -63.7,96.99 0,53.57 28.53,96.99 63.7,96.99z"/>
   <path class="fil1" d="M1093.88 597.06c46.01,0 83.31,-49.94 83.31,-111.54 0,-61.61 -37.3,-111.55 -83.31,-111.55 -46,0 -83.3,49.94 -83.3,111.55 0,61.6 37.3,111.54 83.3,111.54z"/>
   <path class="fil3" d="M908.97 497.01c-4.07,-31.89 -22.61,-55.83 -41.41,-53.48 -18.79,2.35 -30.73,30.11 -26.65,61.99 4.07,31.89 22.61,55.83 41.4,53.48 18.8,-2.35 30.73,-30.11 26.66,-61.99z"/>
   <path class="fil3" d="M1088.99 567.97c27.06,0 49,-28.23 49,-63.05 0,-34.82 -21.94,-63.05 -49,-63.05 -27.07,0 -49.01,28.23 -49.01,63.05 0,34.82 21.94,63.05 49.01,63.05z"/>
   <path class="fil4" d="M1740.7 1571.85c-19.6,-9.7 -53.91,-24.25 -83.3,-67.9 -14.69,-24.25 -9.8,-92.14 -34.3,-121.24 -14.7,-19.39 -34.3,-9.69 -39.2,-9.69 -44.1,9.69 -147.01,77.59 -215.61,0 -9.8,-9.7 -24.5,-24.25 -49,-24.25 -24.5,0 -34.3,9.7 -44.1,29.1 -9.8,19.4 -9.8,33.95 -9.8,82.45 0,38.79 0,82.44 -4.9,116.39 -9.8,82.45 -24.5,130.95 -24.5,179.44 0,53.35 14.7,87.3 34.3,101.84 14.7,14.55 39.19,24.25 93.1,24.25 53.9,0 88.2,-19.39 122.5,-53.35 24.5,-24.24 44.1,-33.95 112.7,-82.44 53.9,-33.95 137.21,-77.6 151.9,-92.14 9.8,-9.7 24.5,-14.55 24.5,-43.65 0,-24.24 -19.59,-33.95 -34.3,-38.8l0 0z"/>
   <path class="fil4" d="M755.77 1586.4c-49,-77.6 -53.9,-92.14 -88.2,-140.65 -29.4,-48.49 -93.1,-140.63 -132.3,-140.63 -29.4,0 -44.1,14.54 -63.7,33.95 -19.6,19.39 -39.2,63.04 -73.5,87.3 -29.4,24.24 -112.7,19.39 -132.3,48.49 -19.6,29.1 19.6,72.75 19.6,145.49 0,29.1 -24.5,48.49 -29.4,67.9 -4.9,24.25 -9.8,38.79 0,58.19 19.6,29.1 44.1,38.8 210.7,72.74 88.2,19.4 171.5,67.89 225.41,72.75 53.9,4.85 147,0 147,-130.95 4.9,-77.59 -39.2,-96.99 -83.3,-174.58z"/>
   <path class="fil4" d="M848.88 708.61c-29.4,-19.4 -53.91,-38.8 -53.91,-67.9 0,-29.1 19.61,-38.8 49,-63.04 4.9,-4.85 58.8,-53.35 112.7,-53.35 53.9,0 117.6,33.95 142.1,43.65 44.1,9.7 88.2,19.4 83.3,53.34 -4.89,48.5 -9.79,58.2 -58.8,82.45 -34.3,9.7 -98,63.04 -142.1,63.04 -19.6,0 -49,0 -68.6,-4.85 -14.7,-4.85 -39.21,-29.1 -63.7,-53.35l0 0z"/>
   <path class="fil5" d="M839.07 669.81c9.8,9.7 24.5,19.4 39.21,24.25 9.79,4.85 24.49,9.7 24.49,9.7 19.61,0 34.31,0 44.1,0 24.5,0 58.8,-9.7 93.1,-29.1 34.3,-14.55 39.21,-24.25 63.7,-33.95 24.5,-14.55 49,-29.1 39.2,-33.95 -9.8,-4.85 -19.61,0 -53.91,19.4 -29.4,19.4 -53.9,29.1 -83.3,43.65 -14.7,4.85 -34.3,14.55 -49,14.55 -14.7,0 -29.4,0 -44.1,0 -14.7,0 -24.51,-4.85 -39.21,-9.7 -9.8,-4.85 -14.7,-9.7 -19.6,-9.7 -9.8,-4.85 -29.4,-24.25 -39.2,-29.1 0,0 -9.8,0 -4.91,4.85 14.7,14.55 19.61,19.4 29.4,29.1z"/>
   <path class="fil5" d="M986.08 563.12c4.9,9.7 14.7,9.7 19.6,14.55 4.89,4.85 9.8,4.85 9.8,4.85 4.9,-4.85 0,-14.55 -4.91,-14.55 0,-9.7 -24.49,-9.7 -24.49,-4.85l0 0z"/>
   <path class="fil5" d="M907.68 572.82c0,4.85 9.79,9.7 9.79,4.85 4.91,-4.85 9.8,-9.7 14.7,-9.7 9.8,-4.85 4.89,-9.7 -9.8,-9.7 -9.8,4.85 -9.8,9.7 -14.7,14.55l0 0z"/>
   <path class="fil6" d="M1382.99 1431.21c0,4.85 0,9.7 0,14.54 9.8,19.4 34.3,24.25 53.9,24.25 29.4,0 58.8,-19.4 73.51,-38.79 0,-4.85 4.89,-9.71 9.8,-14.56 9.8,-14.54 14.7,-24.24 19.6,-29.1 0,0 -4.9,-4.85 -4.9,-9.7 -4.9,-9.7 -19.61,-19.4 -39.2,-24.25 -14.7,-4.85 -39.19,-9.7 -49,-9.7 -44.1,-4.85 -68.6,9.7 -83.3,24.25 0,0 4.89,0 4.89,4.85 9.8,9.69 14.7,19.4 14.7,33.95 4.9,9.69 0,14.54 0,24.25l0 0z"/>
  </g>
 </g>
</svg>
