<?xml version="1.0" encoding="UTF-8"?>
<!DOCTYPE svg PUBLIC "-//W3C//DTD SVG 1.1//EN" "http://www.w3.org/Graphics/SVG/1.1/DTD/svg11.dtd">
<!-- Creator: CorelDRAW 2018 (64-Bit) -->
<svg xmlns="http://www.w3.org/2000/svg" xml:space="preserve" width="67.7334mm" height="67.7334mm" version="1.1" style="shape-rendering:geometricPrecision; text-rendering:geometricPrecision; image-rendering:optimizeQuality; fill-rule:evenodd; clip-rule:evenodd"
viewBox="0 0 2025.3 2025.3"
 xmlns:xlink="http://www.w3.org/1999/xlink">
 <defs>
  <style type="text/css">
   <![CDATA[
    .fil2 {fill:none}
    .fil0 {fill:#FEFEFE}
    .fil1 {fill:#2CB134}
   ]]>
  </style>
   <clipPath id="id0">
    <path d="M474.68 0l1075.94 0c262.11,0 474.68,212.57 474.68,474.68l0 1075.94c0,262.11 -212.57,474.68 -474.68,474.68l-1075.94 0c-262.11,-0 -474.68,-212.57 -474.68,-474.68l-0 -1075.94c0,-262.11 212.57,-474.68 474.68,-474.68z"/>
   </clipPath>
 </defs>
 <g id="Слой_x0020_1">
  <metadata id="CorelCorpID_0Corel-Layer"/>
  <path class="fil0" d="M474.68 0l1075.94 0c262.11,0 474.68,212.57 474.68,474.68l0 1075.94c0,262.11 -212.57,474.68 -474.68,474.68l-1075.94 0c-262.11,-0 -474.68,-212.57 -474.68,-474.68l-0 -1075.94c0,-262.11 212.57,-474.68 474.68,-474.68z"/>
  <g style="clip-path:url(#id0)">
   <g id="_2381469035696">
    <path id="1" class="fil1" d="M1786.16 -5.24c4.78,-0.3 9.31,2.14 11.69,6.29 2.37,4.16 2.18,9.31 -0.51,13.27l0 5.98 -483.56 656.86c-3.54,4 -8.63,6.29 -13.98,6.29 -5.34,0 -10.43,-2.29 -13.97,-6.29l0 0 -170.5 -190.07c-4.17,-4.32 -10.06,-6.52 -16.04,-5.98 -5.97,0.54 -11.38,3.77 -14.7,8.77l0 0 -103.42 131.37c-3.27,7.4 -2.2,16 2.8,22.36l0 0 307.47 318.65c3.54,4 8.63,6.29 13.97,6.29 5.35,0 10.43,-2.29 13.98,-6.29l0 0 692.1 -779.43c3.56,-3.83 86.01,95.08 90.91,96.92 4.9,1.84 8.2,6.45 8.38,11.68l0 0 -2.99 1750.3c0.23,3.77 -1.17,7.47 -3.84,10.14 -2.68,2.67 -6.36,4.07 -10.14,3.84l0 0 -2080.75 0c-3.77,0.23 -7.46,-1.17 -10.14,-3.84 -2.67,-2.67 -4.07,-6.36 -3.84,-10.14l0 0 2.99 -2027.02c-0.23,-3.77 1.17,-13.45 3.84,-16.12 2.68,-2.67 6.36,1.91 10.14,2.14l0 -5.98 1770.15 0zm-475.18 1121.24c-83.21,-1.46 -163.41,31.14 -222,90.26 -58.59,59.11 -90.47,139.6 -88.26,222.8 0,192.87 139.76,315.85 321.44,315.85 84.11,2.1 166.58,-23.43 234.79,-72.67 6.32,-5.74 7.51,-15.24 2.79,-22.36l0 0 -50.31 -75.47c-5.65,-6.49 -15.28,-7.69 -22.36,-2.8 -43.73,29.87 -95.2,46.37 -148.14,47.52 -97.83,0 -159.32,-61.5 -170.5,-134.17 0.21,-3 2.59,-5.39 5.59,-5.59l0 0 422.07 0c9,-0.61 16.16,-7.77 16.77,-16.77l0 0 0 -16.77c0,-195.66 -122.99,-329.83 -301.87,-329.83zm-416.48 -106.22c-84.9,-69.39 -192.32,-105.2 -301.87,-100.62 -190.07,0 -307.47,111.81 -307.47,245.97 0,304.67 464,206.84 464,349.39 0,44.72 -44.72,89.44 -139.76,89.44 -90.26,0.75 -177.34,-33.29 -243.18,-95.03 -3.93,-3.67 -9.26,-5.47 -14.61,-4.94 -5.35,0.54 -10.21,3.35 -13.34,7.74l0 0 -72.67 100.63c-4.72,7.12 -3.53,16.62 2.79,22.36 75.47,69.88 181.68,117.39 329.83,117.39 218.02,0 324.24,-111.8 329.83,-257.15 0,-301.87 -464,-215.22 -464,-343.8 0,-47.52 41.92,-81.06 114.6,-81.06 80.11,-1.1 158.13,25.57 220.82,75.47 3.68,3.02 8.43,4.43 13.17,3.9 4.73,-0.52 9.06,-2.94 11.99,-6.69l0 0 72.67 -97.83c3.02,-3.69 4.43,-8.43 3.9,-13.17 -0.52,-4.74 -2.94,-9.06 -6.69,-11.99zm419.27 229.2c76.02,-4.25 141.66,52.71 148.14,128.58 -0.2,3 -2.59,5.39 -5.59,5.59l0 0 -285.1 0c-3,-0.2 -5.39,-2.59 -5.59,-5.59 9.34,-74.38 73.19,-129.79 148.14,-128.58z"/>
   </g>
  </g>
  <path class="fil2" d="M474.68 0l1075.94 0c262.11,0 474.68,212.57 474.68,474.68l0 1075.94c0,262.11 -212.57,474.68 -474.68,474.68l-1075.94 0c-262.11,-0 -474.68,-212.57 -474.68,-474.68l-0 -1075.94c0,-262.11 212.57,-474.68 474.68,-474.68z"/>
 </g>
</svg>
