<?xml version="1.0" encoding="UTF-8"?>
<!DOCTYPE svg PUBLIC "-//W3C//DTD SVG 1.1//EN" "http://www.w3.org/Graphics/SVG/1.1/DTD/svg11.dtd">
<!-- Creator: CorelDRAW 2018 (64-Bit) -->
<svg xmlns="http://www.w3.org/2000/svg" xml:space="preserve" width="67.7334mm" height="67.7334mm" version="1.1" style="shape-rendering:geometricPrecision; text-rendering:geometricPrecision; image-rendering:optimizeQuality; fill-rule:evenodd; clip-rule:evenodd"
viewBox="0 0 7563.63 7563.63"
 xmlns:xlink="http://www.w3.org/1999/xlink">
 <defs>
  <style type="text/css">
   <![CDATA[
    .str1 {stroke:#2B2A29;stroke-width:22.33;stroke-miterlimit:22.9256}
    .str0 {stroke:#19AEFF;stroke-width:8.51;stroke-miterlimit:22.9256}
    .fil0 {fill:whitesmoke}
    .fil2 {fill:#19AEFF}
    .fil1 {fill:black;fill-rule:nonzero}
   ]]>
  </style>
 </defs>
 <g id="Слой_x0020_1">
  <metadata id="CorelCorpID_0Corel-Layer"/>
  <path class="fil0" d="M1772.73 0l4018.18 0c978.88,0 1772.73,793.85 1772.73,1772.73l0 4018.18c0,978.87 -793.85,1772.71 -1772.73,1772.71l-4018.18 0.01c-978.87,-0.01 -1772.71,-793.86 -1772.71,-1772.74l-0.01 -4018.17c0.01,-978.88 793.86,-1772.73 1772.74,-1772.73z"/>
  <path class="fil1 str0" d="M3747.55 869.55l3217.44 473.29c19.13,2.81 32.65,19.84 31.47,38.79l10.68 3976.76c-0.02,20.33 -16.53,36.82 -36.86,36.79 -6.42,-0.01 -12.46,-1.66 -17.71,-4.56l-3219.47 -1634.32c-12.8,-6.49 -20.16,-19.43 -20.16,-32.85l-7.58 -2817.42c0.02,-20.35 16.53,-36.82 36.87,-36.79 1.81,0 3.58,0.13 5.33,0.39l0 -0.08zm3175.33 541.7l-3143.75 -462.45 7.38 2752.06 3146.8 1597.43 -10.43 -3887.04z"/>
  <path class="fil1" d="M801.76 1144l2285.54 669.3 3595.52 -437.38 -2942.37 -432.81 -2938.69 200.89zm2272.25 742.1l-2489.06 -728.91c-15.37,-3.61 -27.25,-16.9 -28.34,-33.46 -1.34,-20.3 14.05,-37.84 34.35,-39.18l3146.46 -215.09c3.29,-0.42 6.69,-0.41 10.13,0.09l3217.44 473.28 -0.01 0.09c16.01,2.35 29.13,15.14 31.19,31.98 2.45,20.18 -11.91,38.54 -32.09,40.99l-3875.36 471.41c-4.79,0.58 -9.77,0.22 -14.7,-1.19z"/>
  <polygon class="fil2 str1" points="3739.62,900.03 594.21,1115.46 600.34,4484.88 3094.48,7015.92 6968.57,5363.21 6967.32,1384.4 "/>
  <path class="fil1" d="M3121.18 1883.34l13.62 5075.89 3798.6 -1625.15 -10.51 -3913.19 -3801.72 462.45zm-59.88 5131.58l-13.87 -5164.21c0.01,-18.35 13.7,-34.23 32.37,-36.5l3874.16 -471.26c1.85,-0.29 3.75,-0.44 5.68,-0.44 20.35,0.02 36.82,16.53 36.79,36.86l10.69 3979c-0.03,14.26 -8.39,27.83 -22.32,33.8l-3871.01 1656.12c-4.77,2.24 -10.09,3.5 -15.71,3.48 -20.33,-0.02 -36.81,-16.53 -36.78,-36.86z"/>
  <path class="fil1" d="M605.35 1086.48l2489.15 728.93c16.11,4.67 26.59,19.4 26.57,35.38l13.89 5164.21c-0.02,20.33 -16.53,36.81 -36.87,36.78 -10.25,0 -19.52,-4.21 -26.2,-10.98l-2495.74 -2529.52c-7.44,-7.55 -10.95,-17.48 -10.57,-27.28l-9.03 -3362.73c0.02,-20.33 16.53,-36.82 36.87,-36.79 4.18,0.01 8.19,0.71 11.94,2zm2442.16 791.85l-2417.18 -707.85 8.86 3299.74 2421.87 2454.69 -13.55 -5046.58z"/>
  <path class="fil1" d="M771.7 2092.69c1.12,-2.07 384.77,-730.5 1087.33,40.57 42.68,46.83 81.87,92.25 119.85,136.26 97.85,113.39 187.57,217.34 273.43,274.08 113.66,75.13 229.94,58.01 376.93,-164.41l92.48 61.06c-194.25,293.9 -360.56,308.15 -530.48,195.83 -98.13,-64.86 -192.86,-174.6 -296.17,-294.31 -38.49,-44.6 -78.22,-90.63 -117.75,-134.02 -596.89,-655.09 -907.65,-64.19 -908.55,-62.51l-97.08 -52.54z"/>
  <path class="fil1" d="M757.35 2535.91c1.12,-2.07 384.77,-730.5 1087.33,40.57 42.68,46.84 81.87,92.25 119.85,136.27 97.85,113.38 187.57,217.33 273.42,274.08 113.67,75.12 229.94,58 376.95,-164.42l92.48 61.06c-194.25,293.9 -360.56,308.15 -530.48,195.83 -98.13,-64.86 -192.86,-174.6 -296.17,-294.3 -38.49,-44.61 -78.22,-90.64 -117.75,-134.03 -596.89,-655.09 -907.65,-64.18 -908.55,-62.51l-97.08 -52.54z"/>
  <path class="fil1" d="M742.99 2979.13c1.13,-2.07 384.77,-730.49 1087.34,40.57 42.68,46.84 81.87,92.26 119.85,136.26 97.85,113.39 187.57,217.34 273.42,274.08 113.67,75.13 229.94,58.02 376.95,-164.41l92.48 61.06c-194.26,293.91 -360.56,308.14 -530.49,195.83 -98.13,-64.86 -192.85,-174.6 -296.15,-294.31 -38.5,-44.6 -78.22,-90.63 -117.75,-134.02 -596.9,-655.08 -907.65,-64.18 -908.55,-62.5l-97.1 -52.55z"/>
 </g>
</svg>
